<svg width="30" height="26" viewBox="0 0 30 26" fill="none" xmlns="http://www.w3.org/2000/svg">
<path d="M6.28223 22.1122C5.94549 22.449 5.77713 22.8605 5.77713 23.3469C5.77713 23.8333 5.95485 24.2542 6.31029 24.6097C6.66574 24.9651 7.08665 25.1429 7.57305 25.1429C8.05944 25.1429 8.48036 24.9651 8.8358 24.6097C9.19125 24.2542 9.36897 23.8333 9.36897 23.3469C9.36897 22.8605 9.19125 22.4396 8.8358 22.0842C8.48036 21.7287 8.05944 21.551 7.57305 21.551C7.08665 21.551 6.65638 21.7381 6.28223 22.1122ZM22.4455 22.1122C22.1088 22.449 21.9404 22.8605 21.9404 23.3469C21.9404 23.8333 22.1181 24.2542 22.4736 24.6097C22.829 24.9651 23.2499 25.1429 23.7363 25.1429C24.2227 25.1429 24.6436 24.9651 24.9991 24.6097C25.3545 24.2542 25.5322 23.8333 25.5322 23.3469C25.5322 22.8605 25.3545 22.4396 24.9991 22.0842C24.6436 21.7287 24.2227 21.551 23.7363 21.551C23.2499 21.551 22.8196 21.7381 22.4455 22.1122ZM0.557741 0.280612C0.408081 0.430273 0.333252 0.636053 0.333252 0.897959C0.333252 1.15987 0.417435 1.375 0.585803 1.54337C0.754171 1.71174 0.969305 1.79592 1.23121 1.79592H3.08325L4.2057 6.56633L5.77713 14.3673C5.77713 14.4048 5.78648 14.4422 5.80519 14.4796C5.8239 14.517 5.83325 14.5357 5.83325 14.5357L4.87917 18.6888C4.84175 18.9507 4.90723 19.1939 5.0756 19.4184C5.24397 19.6429 5.47781 19.7551 5.77713 19.7551H26.1496C26.4115 19.7551 26.6266 19.6709 26.795 19.5026C26.9634 19.3342 27.0475 19.119 27.0475 18.8571C27.0475 18.5952 26.9634 18.3801 26.795 18.2117C26.6266 18.0434 26.4115 17.9592 26.1496 17.9592H6.89958L7.29244 16.1071C7.32985 16.1071 7.37662 16.1165 7.43274 16.1352C7.48886 16.1539 7.53563 16.1633 7.57305 16.1633H23.9608C24.4846 16.1633 24.8962 16.0791 25.1955 15.9107C25.4948 15.7423 25.7754 15.3776 26.0373 14.8163L28.8996 5.89286C29.1615 5.14455 29.1054 4.57398 28.7312 4.18112C28.3571 3.78826 27.8894 3.59184 27.3281 3.59184H5.77713C5.73971 3.59184 5.60876 3.61054 5.38427 3.64796L4.7108 0.67347C4.59856 0.224487 4.29924 0 3.81284 0H1.23121C0.969305 0 0.744818 0.0935363 0.557741 0.280612ZM5.83325 5.38775H27.2159L24.3537 14.199C24.3162 14.2738 24.2788 14.3299 24.2414 14.3673C24.1666 14.3673 24.073 14.3673 23.9608 14.3673H7.57305V14.199L7.51692 14.0306L5.83325 5.38775Z" fill="#1E1E1E"/>
</svg>
